<?xml version="1.0" encoding="UTF-8"?>
<svg id="Layer_1" data-name="Layer 1" xmlns="http://www.w3.org/2000/svg" viewBox="0 0 968.07 565.62">
  <defs>
    <style>
      .cls-1 {
        fill: #231f20;
      }

      .cls-2 {
        fill: #fff;
      }

      .cls-3 {
        fill: #008ccf;
      }
    </style>
  </defs>
  <path class="cls-3" d="M914.86,476.32c0,19.65-16.14,35.73-35.87,35.73H89.76c-19.73,0-35.87-16.08-35.87-35.73V90.42c0-19.65,16.14-35.73,35.87-35.73h789.22c19.73,0,35.87,16.08,35.87,35.73v385.89Z"/>
  <path class="cls-1" d="M196.46,234.96c0-9.27-2.09-17.11-6.25-23.52-4.17-6.4-11.15-11.01-20.95-13.82-3.06-.85-6.52-1.46-10.38-1.83-3.86-.36-8.91-.55-15.16-.55h-26.65v79.81h30.87c8.33,0,15.53-1.01,21.6-3.02,6.06-2.02,11.12-4.82,15.16-8.42,4.04-3.6,7.01-7.84,8.91-12.72s2.85-10.19,2.85-15.93M244.06,401.35c0,.98-.18,1.83-.55,2.56-.37.73-1.17,1.35-2.39,1.83-1.22.49-2.94.85-5.14,1.1-2.21.24-5.15.37-8.82.37-3.19,0-5.79-.12-7.81-.37-2.02-.25-3.65-.64-4.87-1.19-1.23-.55-2.18-1.31-2.85-2.29-.67-.98-1.26-2.2-1.74-3.66l-21.87-55.83c-2.57-6.34-5.24-12.17-7.99-17.48-2.76-5.31-6.04-9.88-9.83-13.73-3.8-3.85-8.27-6.84-13.41-8.97-5.15-2.13-11.33-3.2-18.56-3.2h-21.14v100.86c0,.98-.28,1.83-.83,2.56-.55.73-1.41,1.31-2.57,1.74-1.17.43-2.76.79-4.78,1.1-2.02.3-4.57.46-7.63.46s-5.61-.16-7.63-.46c-2.02-.3-3.65-.67-4.87-1.1-1.23-.43-2.08-1.01-2.57-1.74-.49-.73-.73-1.58-.73-2.56v-219.29c0-4.76,1.25-8.08,3.76-9.98,2.51-1.89,5.17-2.84,8-2.84h50.54c6,0,11,.15,14.98.46,3.98.3,7.57.64,10.75,1.01,9.19,1.59,17.3,4.09,24.35,7.5,7.04,3.42,12.96,7.75,17.73,13,4.78,5.25,8.36,11.26,10.75,18.03,2.39,6.77,3.59,14.25,3.59,22.42s-1.08,15.04-3.22,21.32c-2.14,6.29-5.24,11.84-9.28,16.66-4.04,4.82-8.88,9-14.52,12.54-5.64,3.54-11.95,6.53-18.93,8.97,3.92,1.71,7.47,3.87,10.66,6.5,3.19,2.63,6.16,5.77,8.92,9.43,2.75,3.66,5.36,7.87,7.81,12.63,2.45,4.76,4.89,10.13,7.35,16.11l21.32,52.17c1.72,4.39,2.82,7.48,3.31,9.25.49,1.77.73,3.14.73,4.12"/>
  <path class="cls-1" d="M365.54,200.73h-.18l-40.98,118.07h82.7l-41.53-118.07ZM467.9,394.94c.98,2.69,1.5,4.85,1.56,6.5.06,1.64-.4,2.9-1.38,3.75-.98.85-2.6,1.4-4.87,1.65-2.27.24-5.3.36-9.09.36s-6.83-.09-9.1-.27c-2.27-.18-3.98-.49-5.15-.92-1.17-.43-2.02-1.01-2.57-1.74-.55-.73-1.07-1.65-1.57-2.75l-20.4-57.66h-98.87l-19.48,56.93c-.37,1.1-.86,2.04-1.47,2.84s-1.5,1.46-2.66,2.02c-1.17.55-2.82.94-4.96,1.19-2.14.24-4.94.36-8.36.36s-6.46-.15-8.73-.45c-2.27-.31-3.86-.89-4.78-1.74-.92-.85-1.35-2.1-1.29-3.75.06-1.65.58-3.82,1.56-6.5l79.76-220.02c.49-1.35,1.13-2.44,1.93-3.3.8-.85,1.96-1.52,3.49-2.02,1.53-.49,3.49-.82,5.88-1.01,2.39-.18,5.42-.28,9.09-.28,3.92,0,7.17.09,9.74.28,2.57.18,4.66.52,6.25,1.01,1.59.49,2.82,1.19,3.68,2.11.85.91,1.53,2.04,2.02,3.39l79.76,220.02Z"/>
  <path class="cls-2" d="M587.5,401.53c0,.98-.25,1.8-.73,2.47-.49.67-1.29,1.25-2.39,1.74-1.1.48-2.64.85-4.6,1.1-1.96.24-4.48.36-7.53.36s-5.39-.12-7.35-.36c-1.96-.25-3.53-.62-4.69-1.1-1.17-.49-1.96-1.07-2.39-1.74-.43-.67-.64-1.5-.64-2.47v-164.74c0-.85.21-1.65.64-2.38.43-.73,1.23-1.34,2.39-1.83,1.16-.49,2.72-.85,4.69-1.1,1.96-.24,4.41-.37,7.35-.37s5.57.12,7.53.37c1.96.24,3.49.61,4.6,1.1,1.1.49,1.9,1.1,2.39,1.83.49.73.73,1.53.73,2.38v164.74ZM590.99,181.14c0,7.08-1.35,11.9-4.04,14.46s-7.66,3.84-14.88,3.84-11.98-1.25-14.61-3.75c-2.64-2.5-3.95-7.23-3.95-14.19s1.35-11.9,4.04-14.46c2.69-2.56,7.66-3.85,14.89-3.85s11.97,1.25,14.61,3.76c2.64,2.5,3.95,7.23,3.95,14.19"/>
  <path class="cls-2" d="M796.64,285.48c0-12.81-1.59-24.74-4.77-35.79-3.19-11.04-8.18-20.59-14.98-28.65-6.8-8.05-15.41-14.34-25.82-18.85-10.41-4.51-23.83-6.77-40.24-6.77h-32.16v184.33h32.53c15.19,0,28-1.89,38.41-5.68,10.41-3.78,19.11-9.58,26.09-17.39,6.99-7.8,12.23-17.6,15.71-29.38,3.49-11.78,5.24-25.72,5.24-41.83M829.91,284.2c0,20.5-2.64,38.41-7.9,53.73-5.27,15.32-12.96,28-23.06,38.07-10.11,10.07-22.51,17.61-37.22,22.61-14.7,5-32.22,7.51-52.56,7.51h-50.35c-2.82,0-5.49-.95-8-2.84-2.51-1.89-3.77-5.22-3.77-9.98v-211.24c0-4.76,1.26-8.08,3.77-9.98,2.51-1.89,5.17-2.84,8-2.84h53.85c20.58,0,37.98,2.65,52.19,7.97,14.21,5.31,26.12,12.93,35.74,22.88,9.62,9.95,16.91,21.99,21.87,36.15,4.96,14.16,7.44,30.14,7.44,47.96"/>
  <path class="cls-2" d="M539.3,113.58c-9.25,0-16.76,7.49-16.76,16.7v306.18c0,9.2,7.52,16.7,16.76,16.7h307.4c9.25,0,16.76-7.49,16.76-16.7V130.28c0-9.21-7.52-16.7-16.76-16.7h-307.4ZM846.71,473.47h-307.4c-20.49,0-37.16-16.61-37.16-37.01V130.28c0-20.41,16.67-37.02,37.16-37.02h307.4c20.49,0,37.16,16.61,37.16,37.02v306.18c0,20.41-16.66,37.01-37.16,37.01"/>
</svg>